<svg xmlns="http://www.w3.org/2000/svg" version="1.1" xmlns:xlink="http://www.w3.org/1999/xlink" xmlns:svgjs="http://svgjs.dev/svgjs" width="1500" height="1500" viewBox="0 0 1500 1500"><rect width="1500" height="1500" fill="#ffffff"></rect><g transform="matrix(0.6666666666666666,0,0,0.6666666666666666,246.96698858292177,505.55029053054443)"><svg viewBox="0 0 104 49" data-background-color="#fee869" preserveAspectRatio="xMidYMid meet" height="706" width="1500" xmlns="http://www.w3.org/2000/svg" xmlns:xlink="http://www.w3.org/1999/xlink"><g id="tight-bounds" transform="matrix(1,0,0,1,0.31543318737612935,0.9490844844263222)"><svg viewBox="0 0 103.36913362524768 47.55307342428721" height="47.55307342428721" width="103.36913362524768"><g><svg viewBox="0 0 103.36913362524768 47.55307342428721" height="47.55307342428721" width="103.36913362524768"><g><svg viewBox="0 0 103.36913362524768 47.55307342428721" height="47.55307342428721" width="103.36913362524768"><g id="textblocktransform"><svg viewBox="0 0 103.36913362524768 47.55307342428721" height="47.55307342428721" width="103.36913362524768" id="textblock"><g><svg viewBox="0 0 103.36913362524768 47.55307342428721" height="47.55307342428721" width="103.36913362524768"><g><svg><g></g><g></g></svg></g><g><svg><g><svg></svg></g><g></g></svg></g><g id="text-0"><svg viewBox="0 0 103.36913362524768 47.55307342428721" height="47.55307342428721" width="103.36913362524768"><g transform="matrix(1,0,0,1,0,0)"><svg width="41.488333625247684" viewBox="0.5 -34.5 30.1 34.5" height="47.55307342428721" data-palette-color="#222222"><g class="wordmark-text-0" data-fill-palette-color="primary"><path d="M13.25-34.5L17.85-34.5Q18.45-34.5 18.9-34.18 19.35-33.85 19.5-33.3L19.5-33.3 30.6 0 26.05 0 17.1-28.3Q16.9-29 16.68-29.73 16.45-30.45 16.25-31.1L16.25-31.1 14.85-31.1Q14.65-30.45 14.45-29.73 14.25-29 14-28.3L14-28.3 5.05 0 0.5 0 11.6-33.3Q11.75-33.85 12.2-34.18 12.65-34.5 13.25-34.5L13.25-34.5ZM6.75-14.6L24.25-14.6 24.25-10.8 6.75-10.8 6.75-14.6Z" fill="#000000" data-fill-palette-color="primary"></path></g></svg></g><g><svg xmlns="http://www.w3.org/2000/svg" xmlns:xlink="http://www.w3.org/1999/xlink" version="1.1" x="54.667333625247686" y="0" viewBox="11.017823632605122 11.461749422187646 37.96369815853941 37.06825057781236" style="enable-background:new 0 0 60 60;" xml:space="preserve" height="47.55307342428721" width="48.7018" class="icon-dxe-0" data-fill-palette-color="accent" id="dxe-0"><path d="M48.85 34.1L35.82 11.92A0.945 0.945 0 0 0 34.2 11.92L30 19.08 25.79 11.93A0.945 0.945 0 0 0 24.17 11.93L11.15 34.1C10.93 34.47 10.99 34.93 11.29 35.23L24.32 48.26C24.5 48.44 24.74 48.53 24.98 48.53S25.46 48.44 25.64 48.26L30 43.91 34.35 48.26C34.53 48.44 34.77 48.53 35.01 48.53S35.49 48.44 35.67 48.26L48.7 35.23C49.01 34.93 49.07 34.46 48.85 34.1M24.99 46.28L13.13 34.42 24.99 14.24 28.92 20.92 21.17 34.1C20.95 34.47 21.01 34.93 21.31 35.23L28.67 42.59zM30 22.77L36.85 34.42 30 41.27 23.15 34.42zM35.01 46.28L31.32 42.59 38.68 35.23C38.98 34.93 39.04 34.46 38.82 34.1L31.08 20.93 35.01 14.25 46.87 34.43z" fill="#000000" data-fill-palette-color="accent"></path></svg></g></svg></g></svg></g></svg></g></svg></g><g></g></svg></g><defs></defs></svg><rect width="103.36913362524768" height="47.55307342428721" fill="none" stroke="none" visibility="hidden"></rect></g></svg></g></svg>